<?xml version="1.0" encoding="utf-8"?>
<!-- Generator: Adobe Illustrator 16.0.3, SVG Export Plug-In . SVG Version: 6.00 Build 0)  -->
<!DOCTYPE svg PUBLIC "-//W3C//DTD SVG 1.1//EN" "http://www.w3.org/Graphics/SVG/1.1/DTD/svg11.dtd">
<svg version="1.1" id="Capa_1" xmlns="http://www.w3.org/2000/svg" xmlns:xlink="http://www.w3.org/1999/xlink" x="0px" y="0px"
	 width="1600px" height="1050px" viewBox="0 0 1600 1050" enable-background="new 0 0 1600 1050" xml:space="preserve">
<g>
	<path fill-rule="evenodd" clip-rule="evenodd" fill="#424242" d="M1,282c0-0.667,0-1.333,0-2c2.139,0.143,2.603-1.842,3.588-3.003
		c50.151-59.085,104.534-113.94,164.047-163.621c42.296-35.309,86.869-67.338,135.979-92.684c2.842-1.467,5.721-2.46,8.937-2.904
		c23.621-3.257,47.381-5.019,71.147-6.613c52.548-3.523,105.17-5.643,157.815-6.829c119.292-2.688,238.593-4.398,357.924-2.739
		c92.648,1.288,185.295,2.438,277.847,7.298c32.615,1.713,65.21,3.733,97.676,7.344c7.521,0.836,15.164,1.036,22.273,4.775
		c29.692,15.617,57.989,33.443,85.018,53.264c77.677,56.963,146.032,123.857,208.881,196.587c2.821,3.265,7.407,6.532,7.663,10.053
		c0.253,3.472-3.868,7.327-6.222,10.914c-60.61,92.379-130.715,177.199-206.429,257.417
		c-176.243,186.729-372.525,350.145-581.617,498.601c-3.624,2.572-5.721,2.336-9.211-0.113
		c-89.812-62.982-176.559-129.964-261.008-199.933C422.525,754.372,314.49,655.804,214.324,548.818
		C136.988,466.218,64.968,379.354,3.385,284.184C2.794,283.271,2.546,281.902,1,282z M331.484,576.465
		c-0.393-0.067-0.787-0.135-1.18-0.202c0.167,0.308,0.335,0.616,0.502,0.924c1.479,1.788,2.868,3.658,4.448,5.351
		c43.037,46.065,91.854,85.047,145.434,118.102c142.925,88.175,297.171,115.507,461.925,85.228
		c24.471-4.497,48.215-11.754,69.744-24.835c7.453-4.528,14.23-9.895,19.461-16.979c8.605-11.661,8.982-24.133,1.141-36.313
		c-4.299-6.678-9.99-12.022-16.283-16.759c-11.404-8.581-24.076-14.845-37.297-20.019c-42.132-16.487-86.281-23.919-131.022-27.681
		c-62.572-5.26-125.225-9.553-187.855-14.095c-57.646-4.181-115.321-7.993-172.713-15.066
		C434.252,607.522,381.465,597.819,331.484,576.465z M1346.31,528.246c2.459-2.111,3.855-3.272,5.211-4.48
		c40.362-35.985,75.094-77.005,107.55-120.077c1.974-2.62,1.588-4.11-0.537-6.181c-3.697-3.602-7.107-7.498-10.715-11.194
		c-121.931-124.941-268.647-207.964-435.545-256.3c-80.66-23.36-163.574-32.33-247.278-34.697
		c-55.353-1.565-110.639,0.251-165.806,4.922c-28.615,2.422-56.152,9.333-81.803,22.676c-12.361,6.43-23.781,14.159-32.44,25.333
		c-12.443,16.059-11.631,32.593,2.302,47.327c2.168,2.292,4.533,4.43,6.987,6.417c8.876,7.185,18.825,12.601,29.326,16.938
		c25.135,10.381,51.136,18.155,77.406,25.024c47.282,12.363,95.858,15.976,144.212,21.089c41.247,4.361,82.504,8.648,123.708,13.396
		c50.303,5.796,100.489,12.526,150.636,19.563c49.426,6.936,98.088,17.146,145.132,34.151
		c41.324,14.938,80.193,34.399,113.75,63.284c27.113,23.339,48.253,50.984,60.06,85.148
		C1343.653,495.599,1346.617,511.033,1346.31,528.246z M1349.497,112.543c0.424,18.807,2.657,36.316,6.805,53.504
		c19.913,82.542,66.379,148.443,128.543,204.468c2.55,2.298,3.707,1.346,5.435-0.846c11.861-15.049,23.765-30.066,35.827-44.954
		c1.936-2.389,1.808-4.155,0.519-6.658c-4.96-9.627-10.086-19.16-15.704-28.417c-34.922-57.538-79.773-106.545-129.884-151.021
		C1371.095,129.795,1360.915,121.251,1349.497,112.543z M966.756,844.118c-0.113-0.308-0.229-0.615-0.344-0.923
		c-12.074,1.103-24.139,2.326-36.225,3.285c-42.261,3.352-84.489,3.247-126.702-1.035c-23.354-2.369-46.526-6.309-69.956-7.959
		c-11.842-0.834-23.661-1.053-34.998,3.358c-11.675,4.543-18.476,13.928-18.667,25.285c-0.043,2.587,0.582,4.263,3.004,5.621
		c38.61,21.653,77.175,43.389,115.724,65.153c1.774,1.002,3.211,1.075,5.092,0.206c53.106-24.528,105.03-51.169,152.812-85.238
		C959.985,849.384,963.34,846.707,966.756,844.118z M934.921,53.935c1.639,1.882,3.194,1.946,4.568,2.396
		c46.964,15.394,93.888,30.918,140.913,46.125c37.992,12.286,75.505,26.117,114.257,35.974c17.789,4.525,35.745,8.07,54.286,6.622
		c21.798-1.702,33.226-14.11,32.867-35.965c-0.177-10.737-2.821-21.058-5.66-31.361c-1.061-3.848-2.781-5.281-6.797-5.5
		c-47.719-2.604-95.427-5.419-143.141-8.114c-40.732-2.301-81.465-4.564-122.203-6.753
		C981.238,56.135,958.457,55.095,934.921,53.935z M386.841,65.636c-21.133,0.533-42.265,1.128-63.4,1.537
		c-3.514,0.068-6.347,1.087-9.192,3.094c-46.028,32.473-88.527,69.024-127.084,110.097c-35.33,37.636-67.294,77.86-93.404,122.55
		c-1.804,3.088-1.63,5.042,0.602,7.825c24.705,30.796,49.257,61.714,73.89,92.567c0.973,1.219,1.573,2.966,3.729,3.343
		c-0.073-1.248-0.032-2.378-0.22-3.469c-1.98-11.5-3.307-23.069-4.088-34.714c-4.576-68.191,12.439-130.09,54.272-184.548
		c35.483-46.191,81.471-79.072,133.617-103.939C365.872,75.062,376.469,70.813,386.841,65.636z"/>
	<path fill-rule="evenodd" clip-rule="evenodd" fill="#ffffff" d="M1346.31,528.246c0.308-17.213-2.656-32.647-7.845-47.661
		c-11.807-34.165-32.946-61.81-60.06-85.148c-33.557-28.885-72.426-48.347-113.75-63.284
		c-47.044-17.005-95.706-27.216-145.132-34.151c-50.146-7.036-100.333-13.766-150.636-19.563
		c-41.203-4.749-82.46-9.036-123.708-13.396c-48.354-5.113-96.93-8.726-144.212-21.089c-26.271-6.869-52.271-14.643-77.406-25.024
		c-10.501-4.337-20.45-9.753-29.326-16.938c-2.454-1.987-4.819-4.124-6.987-6.417c-13.933-14.733-14.745-31.268-2.302-47.327
		c8.659-11.174,20.079-18.903,32.44-25.333c25.651-13.344,53.188-20.254,81.803-22.676c55.167-4.67,110.453-6.487,165.806-4.922
		c83.704,2.367,166.618,11.337,247.278,34.697c166.897,48.335,313.614,131.358,435.545,256.3c3.607,3.697,7.018,7.592,10.715,11.194
		c2.125,2.07,2.511,3.561,0.537,6.181c-32.456,43.072-67.188,84.092-107.55,120.077
		C1350.165,524.974,1348.769,526.135,1346.31,528.246z"/>
	<path fill-rule="evenodd" clip-rule="evenodd" fill="#ffffff" d="M331.485,576.461c49.979,21.358,102.767,31.062,156.303,37.659
		c57.393,7.073,115.067,10.886,172.713,15.066c62.63,4.542,125.283,8.835,187.855,14.095c44.741,3.762,88.891,11.193,131.022,27.681
		c13.221,5.174,25.893,11.438,37.297,20.019c6.293,4.736,11.984,10.081,16.283,16.759c7.842,12.18,7.465,24.651-1.141,36.313
		c-5.23,7.085-12.008,12.451-19.461,16.979c-21.529,13.081-45.273,20.338-69.744,24.835c-164.754,30.279-319,2.947-461.925-85.228
		c-53.58-33.055-102.397-72.036-145.434-118.102c-1.581-1.692-2.97-3.563-4.448-5.351
		C331.041,576.952,331.267,576.711,331.485,576.461z"/>
	<path fill-rule="evenodd" clip-rule="evenodd" fill="#ffffff" d="M1349.497,112.543c11.418,8.708,21.598,17.252,31.54,26.076
		c50.11,44.476,94.962,93.482,129.884,151.021c5.618,9.258,10.744,18.79,15.704,28.417c1.289,2.503,1.417,4.269-0.519,6.658
		c-12.063,14.888-23.966,29.905-35.827,44.954c-1.728,2.191-2.885,3.144-5.435,0.846c-62.164-56.025-108.63-121.925-128.543-204.468
		C1352.154,148.859,1349.921,131.35,1349.497,112.543z"/>
	<path fill-rule="evenodd" clip-rule="evenodd" fill="#ffffff" d="M966.756,844.118c-3.416,2.589-6.771,5.266-10.26,7.754
		c-47.781,34.069-99.705,60.71-152.812,85.238c-1.881,0.869-3.318,0.796-5.092-0.206c-38.549-21.765-77.114-43.5-115.724-65.153
		c-2.422-1.358-3.047-3.034-3.004-5.621c0.191-11.357,6.993-20.742,18.667-25.285c11.336-4.411,23.156-4.192,34.998-3.358
		c23.43,1.65,46.602,5.59,69.956,7.959c42.213,4.282,84.441,4.387,126.702,1.035c12.086-0.959,24.15-2.183,36.225-3.285
		C966.527,843.503,966.643,843.811,966.756,844.118z"/>
	<path fill-rule="evenodd" clip-rule="evenodd" fill="#ffffff" d="M934.921,53.935c23.536,1.16,46.317,2.2,69.091,3.424
		c40.738,2.189,81.471,4.453,122.203,6.753c47.714,2.695,95.422,5.51,143.141,8.114c4.016,0.219,5.736,1.652,6.797,5.5
		c2.839,10.303,5.483,20.624,5.66,31.361c0.358,21.855-11.069,34.263-32.867,35.965c-18.541,1.448-36.497-2.097-54.286-6.622
		c-38.752-9.857-76.265-23.688-114.257-35.974c-47.025-15.207-93.949-30.731-140.913-46.125
		C938.115,55.88,936.56,55.816,934.921,53.935z"/>
	<path fill-rule="evenodd" clip-rule="evenodd" fill="#ffffff" d="M386.841,65.636c-10.373,5.178-20.97,9.426-31.278,14.342
		c-52.146,24.868-98.134,57.748-133.617,103.939c-41.833,54.458-58.848,116.356-54.272,184.548
		c0.782,11.646,2.108,23.214,4.088,34.714c0.188,1.091,0.146,2.222,0.22,3.469c-2.157-0.377-2.756-2.124-3.729-3.343
		c-24.633-30.854-49.186-61.771-73.89-92.567c-2.232-2.782-2.406-4.737-0.602-7.825c26.11-44.689,58.074-84.914,93.404-122.55
		c38.557-41.073,81.056-77.625,127.084-110.097c2.845-2.007,5.678-3.026,9.192-3.094C344.576,66.764,365.708,66.168,386.841,65.636z
		"/>
	<path fill-rule="evenodd" clip-rule="evenodd" fill="#ffffff" d="M330.806,577.187c-0.167-0.308-0.335-0.616-0.502-0.924
		c0.394,0.067,0.787,0.135,1.181,0.2C331.267,576.711,331.041,576.952,330.806,577.187z"/>
</g>
</svg>
